<svg id="Layer_1" data-name="Layer 1" xmlns="http://www.w3.org/2000/svg" viewBox="0 0 80.67 39.67"><defs><style>.cls-1{fill:none;stroke:#000;stroke-miterlimit:10;}</style></defs><title>Blitzden_Web_02</title><path class="cls-1" d="M21.17,29a1.06,1.06,0,0,0,1,.72h3a1.06,1.06,0,0,0,1-1.44L19.47,10.59a1.06,1.06,0,0,0-1-.69H14.83a1.06,1.06,0,0,0-1,.68L7,28.33a1.07,1.07,0,0,0,1,1.45h2.69a1.06,1.06,0,0,0,1-.69l1.43-3.85h6.76Zm-6.81-7.45,2.2-6.65,2.07,6.65Zm0,0"/><path class="cls-1" d="M28,29.74h5.32c1.74,0,5,0,7-2.38a6.35,6.35,0,0,0,.86-5.21,4.54,4.54,0,0,0-2.71-2.76,4.69,4.69,0,0,0,2.25-2.33A5.42,5.42,0,0,0,40,12c-1.48-1.84-4-2.09-6.35-2.09H28A1.06,1.06,0,0,0,26.94,11V28.68A1.06,1.06,0,0,0,28,29.74Zm8.32-5c-.31.65-1,1.25-3.62,1.25H32V21.41h1c1.58,0,2.5.16,3.15,1a2.68,2.68,0,0,1,.19,2.37Zm-.4-8.29c-.45.8-1.08,1.24-3,1.24H32V13.58h1c1.39,0,2.19.19,2.72.88a2.36,2.36,0,0,1,.2,2Zm0,0"/><path d="M69.55,15.37a5.32,5.32,0,0,0-6.94-2.94L44.5,19.74a.71.71,0,0,0-.33.29l-3.9,6.58a.69.69,0,0,0,0,.61.71.71,0,0,0,.37.38l.09,0,4.44,1.22a.69.69,0,0,0,.37-1.34l-3.56-1,2.72-4.59,2.95,7.3a.7.7,0,0,0,.37.38.69.69,0,0,0,.53,0L66.6,22.31a5.32,5.32,0,0,0,2.94-6.94ZM62.2,14.1l1.23,3L46.9,23.82l-1.23-3Zm-13.57,14-1.2-3L64,18.43l1.2,3Zm17.81-7.21-2.94-7.28a3.94,3.94,0,0,1,2.94,7.28Zm0,0"/></svg>