<svg id="Layer_1" data-name="Layer 1" xmlns="http://www.w3.org/2000/svg" xmlns:xlink="http://www.w3.org/1999/xlink" viewBox="0 0 49.33 52"><defs><style>.cls-1{fill:none;}.cls-2{clip-path:url(#clip-path);}</style><clipPath id="clip-path"><rect class="cls-1" x="6.25" y="15.06" width="36.83" height="23.02"/></clipPath></defs><title>Blitzden_Web_02</title><g class="cls-2"><path d="M39.51,18.31H30.28V16h9.23Zm-15.37,9.4A6.06,6.06,0,0,1,25,31.07a6.67,6.67,0,0,1-1,3.66,6.31,6.31,0,0,1-1.62,1.8,6.24,6.24,0,0,1-2.59,1.15,16,16,0,0,1-3.24.31H6.25V15.06H17.32c2.79,0,4.77.85,5.93,2.44a5.82,5.82,0,0,1,1,3.5,5.1,5.1,0,0,1-1.06,3.37,5.39,5.39,0,0,1-1.75,1.31,5.1,5.1,0,0,1,2.64,2ZM11.54,24.1h4.85a4.59,4.59,0,0,0,2.42-.57,2.16,2.16,0,0,0,.93-2,2.05,2.05,0,0,0-1.23-2.11A8.68,8.68,0,0,0,15.8,19H11.54Zm8.67,6.64a2.45,2.45,0,0,0-1.46-2.45,5.74,5.74,0,0,0-2.29-.39H11.54V34h4.84a5.38,5.38,0,0,0,2.32-.4,2.89,2.89,0,0,0,1.5-2.86ZM42.94,27a21.43,21.43,0,0,1,.14,3.26h-12a3.92,3.92,0,0,0,1.71,3.46,4.32,4.32,0,0,0,2.37.62,3.34,3.34,0,0,0,3.27-1.88h4.38a5.36,5.36,0,0,1-1.59,3,8,8,0,0,1-6.17,2.39,9,9,0,0,1-5.78-2q-2.5-2-2.5-6.58,0-4.27,2.26-6.54a7.91,7.91,0,0,1,5.87-2.28,9.34,9.34,0,0,1,3.86.77,6.66,6.66,0,0,1,2.83,2.43A8.13,8.13,0,0,1,42.94,27Zm-4.31.43a3.59,3.59,0,0,0-1.15-2.6A3.74,3.74,0,0,0,34.93,24a3.4,3.4,0,0,0-2.56.94,4.42,4.42,0,0,0-1.14,2.54Zm0,0"/></g></svg>