<svg id="Layer_1" data-name="Layer 1" xmlns="http://www.w3.org/2000/svg" viewBox="0 0 49 47"><defs><style>.cls-1{fill:none;stroke:#000;stroke-miterlimit:10;stroke-width:1.1px;}</style></defs><title>Blitzden_Web_02</title><path class="cls-1" d="M37,12.26H11.64a.46.46,0,0,0-.46.46V29.65a.46.46,0,0,0,.46.46H37a.46.46,0,0,0,.46-.46V12.72a.46.46,0,0,0-.46-.46Zm0,0"/><path class="cls-1" d="M40.62,29.65A3.66,3.66,0,0,1,37,33.31H28.64v2h4.2a1.37,1.37,0,0,1,0,2.75H15.75a1.37,1.37,0,1,1,0-2.75H20v-2H11.64A3.66,3.66,0,0,1,8,29.65V12.72a3.66,3.66,0,0,1,3.66-3.66H37a3.66,3.66,0,0,1,3.66,3.66Zm0,0"/></svg>