<?xml version="1.0" encoding="utf-8"?>
<!-- Generator: Adobe Illustrator 19.0.0, SVG Export Plug-In . SVG Version: 6.00 Build 0)  -->
<svg version="1.1" id="Layer_1" xmlns="http://www.w3.org/2000/svg" xmlns:xlink="http://www.w3.org/1999/xlink" x="0px" y="0px"
	 viewBox="-55 347 100 100" style="enable-background:new -55 347 100 100;" xml:space="preserve">
<style type="text/css">
	.st0{fill:#FFFFFF;}
	.st1{fill:url(#SVGID_1_);}
	.st2{fill:#221F1F;}
</style>
<polyline class="st0" points="-24.1,430 -30.6,417.8 -19.4,423.4 -8.1,401.1 3.1,407.5 23.4,380.3 33.1,397 14.1,430 -24.1,430 
	-30.6,417.8 "/>
<polyline class="st0" points="-33.9,413 -43.1,397 -24.1,364 9.3,364 -3.1,388 -9.4,381.4 -22.2,411.4 -28.3,403.1 -33.9,413 "/>
<title>Blitzden_Logo</title>
<linearGradient id="SVGID_1_" gradientUnits="userSpaceOnUse" x1="-24.1258" y1="353.988" x2="14.1197" y2="431.9996" gradientTransform="matrix(1 0 0 1 0 4)">
	<stop  offset="0" style="stop-color:#E5E551"/>
	<stop  offset="1" style="stop-color:#ABD592"/>
</linearGradient>
<path class="st1" d="M15.5,435h-41c-0.9,0-1.7-0.5-2.2-1.3l-20.5-35.5c-0.4-0.8-0.4-1.7,0-2.5l20.5-35.5c0.4-0.8,1.3-1.3,2.2-1.3h41
	c0.9,0,1.7,0.5,2.2,1.3l20.5,35.5c0.4,0.8,0.4,1.7,0,2.5l-20.5,35.5C17.2,434.5,16.4,435,15.5,435z M-24.1,430H14l19.1-33L14,364
	h-38.1l-19.1,33L-24.1,430z"/>
<polygon class="st2" points="10.6,361.5 11.3,361.8 33.1,367.3 3.1,407.5 -8.1,401.1 -19.4,423.4 -30.6,417.8 -43.1,429.8 
	-28.3,403.1 -22.2,411.4 -9.4,381.4 -3.1,388 "/>
</svg>
