<svg id="Layer_1" data-name="Layer 1" xmlns="http://www.w3.org/2000/svg" viewBox="0 0 49.33 52"><title>Blitzden_Web_02</title><path d="M33.6,41.67H15a5.94,5.94,0,0,1-5.79-5.79V17.27A5.94,5.94,0,0,1,15,11.48H33.6a5.94,5.94,0,0,1,5.79,5.79V35.88A5.94,5.94,0,0,1,33.6,41.67ZM15,13.75a3.71,3.71,0,0,0-3.52,3.52V35.88A3.71,3.71,0,0,0,15,39.4H33.6a3.71,3.71,0,0,0,3.52-3.52V17.27a3.71,3.71,0,0,0-3.52-3.52Z"/><path d="M24.3,34.38a7.8,7.8,0,1,1,7.8-7.8A7.81,7.81,0,0,1,24.3,34.38ZM24.3,21a5.54,5.54,0,1,0,5.54,5.54A5.54,5.54,0,0,0,24.3,21Z"/><circle cx="32.56" cy="19.28" r="1.58"/></svg>