<svg id="Layer_1" data-name="Layer 1" xmlns="http://www.w3.org/2000/svg" xmlns:xlink="http://www.w3.org/1999/xlink" viewBox="0 0 42 47"><defs><style>.cls-1{fill:none;}.cls-2{clip-path:url(#clip-path);}</style><clipPath id="clip-path"><rect class="cls-1" x="4.45" y="4.81" width="32.75" height="32.75"/></clipPath></defs><title>Blitzden_Web_02</title><path d="M20.83,10.24a9.14,9.14,0,0,0-9.11,7.67A8.85,8.85,0,0,0,14,25.09a9.08,9.08,0,0,1,2.42,6.2v3.62a2.68,2.68,0,0,0,2.71,2.65h3.49a2.68,2.68,0,0,0,2.71-2.65V31.29a8.56,8.56,0,0,1,2.28-6.06,8.61,8.61,0,0,0,2.49-6.06,9.13,9.13,0,0,0-9.26-8.92ZM24,34.92a1.26,1.26,0,0,1-1.28,1.26H19.18a1.26,1.26,0,0,1-1.28-1.26v-1.6h6v1.6ZM26.6,24.25a9.92,9.92,0,0,0-2.71,7v.63h-6v-.63A10.72,10.72,0,0,0,15,24.19a7.35,7.35,0,0,1-1.92-6.06,7.86,7.86,0,0,1,7.76-6.48,7.7,7.7,0,0,1,7.83,7.53,7.28,7.28,0,0,1-2.07,5.09Zm0,0"/><rect x="20.11" y="4.81" width="1.42" height="3.34"/><g class="cls-2"><path d="M29.46,11.25l1,1L32.89,9.9l-1-1Zm0,0"/><rect x="33.72" y="19.86" width="3.49" height="1.4"/></g><rect x="4.45" y="19.86" width="3.49" height="1.4"/><path d="M9.74,8.9l-1,1,2.44,2.35,1-1Zm0,0"/></svg>