<svg id="Layer_1" data-name="Layer 1" xmlns="http://www.w3.org/2000/svg" viewBox="0 0 50.5 46.67"><title>Blitzden_Web_02</title><path d="M39.42,10.12a6.69,6.69,0,0,0-9.47,0L12.58,27.49a.87.87,0,0,0-.25.5L11,37.52a.87.87,0,0,0,.25.73.89.89,0,0,0,.61.26H12l5.74-.78A.87.87,0,0,0,17.53,36l-4.61.62.9-6.65,7,7a.88.88,0,0,0,.61.26A.86.86,0,0,0,22,37L39.42,19.6a6.69,6.69,0,0,0,0-9.47Zm-9.14,2.13,2.92,2.92L17.35,31l-2.92-2.92ZM21.44,35.11l-2.85-2.85L34.44,16.41l2.85,2.85ZM38.51,18l-7-7a5,5,0,0,1,7,7Zm0,0"/></svg>