<svg id="Layer_1" data-name="Layer 1" xmlns="http://www.w3.org/2000/svg" viewBox="0 0 47.5 53.81"><title>Blitzden_Web_02</title><path d="M28.89,8.31H12V39.63H36.51V15.92Zm.31,1.78,5.53,5.53H29.2ZM13,38.59V9.36H28.16v7.31h7.31V38.59Zm0,0"/><path d="M30.77,19.27H22.41a.52.52,0,1,0,0,1h8.35a.52.52,0,1,0,0-1Zm0,0"/><path d="M20.52,17.82l-2.25,1.8-.71-.71a.52.52,0,1,0-.74.74l1,1a.52.52,0,0,0,.37.15.5.5,0,0,0,.32-.11l2.61-2.09a.52.52,0,0,0-.65-.82Zm0,0"/><path d="M30.77,25H22.41a.52.52,0,1,0,0,1h8.35a.52.52,0,1,0,0-1Zm0,0"/><path d="M20.52,23.56l-2.25,1.8-.71-.71a.52.52,0,0,0-.74.74l1,1a.52.52,0,0,0,.37.15.51.51,0,0,0,.32-.12l2.61-2.09a.52.52,0,0,0-.65-.82Zm0,0"/><path d="M30.77,30.76H22.41a.52.52,0,0,0,0,1h8.35a.52.52,0,0,0,0-1Zm0,0"/><path d="M20.52,29.31l-2.25,1.8-.71-.71a.52.52,0,1,0-.74.74l1,1a.52.52,0,0,0,.37.15.51.51,0,0,0,.32-.12l2.61-2.09a.52.52,0,0,0-.65-.82Zm0,0"/></svg>